<svg width="16" height="16" viewBox="0 0 16 16" fill="none" xmlns="http://www.w3.org/2000/svg">
<path fill-rule="evenodd" clip-rule="evenodd" d="M13.6118 2.43C12.0647 0.892278 10.1888 0.123047 7.98548 0.123047C5.80062 0.123047 3.95815 0.887601 2.45785 2.41572C1.69846 3.17535 1.11926 4.03566 0.720739 4.99689C0.322216 5.95812 0.123077 6.95899 0.123077 7.99997C0.123077 9.05031 0.32 10.0487 0.713847 10.9959C1.10769 11.9431 1.68197 12.7943 2.43692 13.549C3.19188 14.3037 4.04529 14.8805 4.99692 15.2787C5.9488 15.6778 6.94523 15.8766 7.98597 15.8766C9.02671 15.8766 10.035 15.675 11.01 15.2718C11.9855 14.8686 12.8576 14.287 13.6263 13.5276C14.3668 12.8056 14.9273 11.9731 15.3071 11.0309C15.6864 10.0888 15.8767 9.07837 15.8767 7.99997C15.8767 6.93092 15.6839 5.92071 15.2997 4.96883C14.9152 4.0172 14.3522 3.17068 13.6118 2.43ZM3.47052 3.42865C4.69908 2.17228 6.21366 1.54385 8.01403 1.54385C9.79569 1.54385 11.3191 2.17695 12.5858 3.44292C13.1948 4.05289 13.6593 4.74655 13.9776 5.52489C14.2964 6.30323 14.4559 7.12834 14.4559 8.00046C14.4559 9.81068 13.842 11.3157 12.6137 12.5159C11.9756 13.1347 11.2613 13.6078 10.4689 13.9365C9.67557 14.2648 8.85785 14.4285 8.01403 14.4285C7.16062 14.4285 6.34462 14.2668 5.56652 13.9434C4.78769 13.6194 4.08935 13.151 3.47052 12.5366C2.85145 11.9224 2.37588 11.2238 2.04283 10.4403C1.70954 9.65782 1.54339 8.84428 1.54339 8.00022C1.54339 7.1468 1.70954 6.32859 2.04283 5.54557C2.37563 4.76255 2.85145 4.05708 3.47052 3.42865ZM7.91533 6.69215L6.86006 7.24083C6.74733 7.00674 6.60923 6.84231 6.44529 6.74852C6.28111 6.65499 6.12874 6.60797 5.98794 6.60797C5.28492 6.60797 4.93292 7.07197 4.93292 8.00046C4.93292 8.42237 5.02203 8.7596 5.2 9.01289C5.37822 9.26619 5.64086 9.39295 5.98794 9.39295C6.44751 9.39295 6.77096 9.16772 6.95877 8.71775L7.92911 9.21006C7.72283 9.5948 7.4368 9.89708 7.07102 10.1174C6.70573 10.3379 6.30228 10.448 5.86142 10.448C5.15816 10.448 4.59052 10.2326 4.15926 9.80083C3.728 9.36957 3.51237 8.76945 3.51237 8.00071C3.51237 7.25043 3.73046 6.65523 4.1664 6.21437C4.60234 5.77375 5.15323 5.5532 5.81932 5.5532C6.79483 5.55271 7.49317 5.93252 7.91533 6.69215ZM11.4176 7.24083L12.4586 6.69215C12.0463 5.93252 11.3519 5.55271 10.3766 5.5532C9.71077 5.5532 9.15988 5.77375 8.72419 6.21437C8.28776 6.65523 8.06991 7.25043 8.06991 8.00071C8.06991 8.76945 8.28308 9.36957 8.7104 9.80083C9.13674 10.2326 9.70609 10.448 10.419 10.448C10.8502 10.448 11.2487 10.3379 11.6145 10.1174C11.9798 9.89708 12.2708 9.5948 12.4862 9.21006L11.5015 8.71775C11.3142 9.16772 10.9905 9.39295 10.5314 9.39295C10.1839 9.39295 9.92148 9.26619 9.74351 9.01289C9.56554 8.7596 9.47619 8.42237 9.47619 8.00046C9.47619 7.07197 9.82819 6.60797 10.5314 6.60797C10.6809 6.60797 10.8382 6.65499 11.0026 6.74852C11.1665 6.84231 11.3051 7.00674 11.4176 7.24083Z" fill="white"/>
</svg>
