<svg width="24" height="24" viewBox="0 0 24 24" fill="none" xmlns="http://www.w3.org/2000/svg">
<path fill-rule="evenodd" clip-rule="evenodd" d="M7.05033 0.0721905C8.32965 0.0138101 8.73833 2.69157e-07 11.9962 0C15.2542 0 15.6629 0.0138095 16.9422 0.0724286C18.2191 0.130476 19.0911 0.333238 19.8542 0.629571C20.6548 0.930856 21.3799 1.40315 21.9791 2.01352C22.5894 2.61273 23.0616 3.33784 23.3628 4.13829C23.6594 4.90133 23.8621 5.77333 23.9204 7.05024C23.9788 8.32957 23.9926 8.73829 23.9926 11.9962C23.9926 15.2542 23.9788 15.6627 23.9204 16.9422C23.8621 18.2191 23.6594 19.0911 23.3628 19.8542C22.7396 21.4656 21.4657 22.7394 19.8544 23.3626C19.0913 23.6592 18.2193 23.862 16.9424 23.9202C15.6631 23.9786 15.2544 23.9924 11.9964 23.9924C8.73848 23.9924 8.32995 23.9786 7.05043 23.9202C5.77357 23.862 4.90157 23.6592 4.13848 23.3626C3.33803 23.0614 2.61292 22.5892 2.01371 21.979C1.40347 21.3797 0.93127 20.6546 0.630048 19.8542C0.333476 19.0911 0.130714 18.2191 0.0724286 16.9422C0.0138095 15.6629 0 15.2542 0 11.9962C0 8.73824 0.0138095 8.32957 0.0724286 7.05024C0.130476 5.77333 0.333238 4.90133 0.629571 4.13824C0.930904 3.33776 1.40323 2.61264 2.01362 2.01348C2.61282 1.40323 3.33793 0.93103 4.13838 0.629809C4.90143 0.333238 5.77343 0.130476 7.05033 0.0721905ZM16.8439 2.23148C15.5788 2.17376 15.1994 2.16152 11.9962 2.16152L11.9963 2.16148C8.7931 2.16148 8.41371 2.17371 7.14871 2.23143C5.9791 2.28476 5.3439 2.48019 4.92119 2.64448C4.40014 2.83679 3.92881 3.14343 3.54186 3.54186C3.14339 3.92881 2.83671 4.40016 2.64438 4.92124C2.4801 5.344 2.28471 5.97914 2.23133 7.14876C2.17362 8.41386 2.16138 8.79314 2.16138 11.9964C2.16138 15.1996 2.17362 15.579 2.23133 16.844C2.28467 18.0136 2.4801 18.6488 2.64438 19.0715C2.83669 19.5926 3.14333 20.0639 3.54176 20.4509C3.92871 20.8493 4.40004 21.1559 4.9211 21.3482C5.34386 21.5125 5.979 21.7079 7.14862 21.7613C8.41352 21.819 8.79276 21.8312 11.9962 21.8312C15.1997 21.8312 15.5791 21.819 16.8439 21.7613C18.0135 21.708 18.6487 21.5125 19.0714 21.3482C20.1176 20.9447 20.9445 20.1177 21.3481 19.0715C21.5123 18.6488 21.7078 18.0136 21.7611 16.844C21.8189 15.5789 21.8311 15.1996 21.8311 11.9964C21.8311 8.79314 21.8189 8.41376 21.7611 7.14876C21.7078 5.97914 21.5124 5.34395 21.3481 4.92124C21.1558 4.40019 20.8491 3.92886 20.4507 3.5419C20.0638 3.14348 19.5924 2.83683 19.0714 2.64452C18.6486 2.48024 18.0135 2.28486 16.8439 2.23148Z" fill="white"/>
<path fill-rule="evenodd" clip-rule="evenodd" d="M5.836 11.9962C5.836 8.59397 8.59403 5.83594 11.9962 5.83594C15.3984 5.83594 18.1565 8.59397 18.1565 11.9962C18.1565 15.3984 15.3984 18.1564 11.9962 18.1564C8.59403 18.1564 5.836 15.3984 5.836 11.9962ZM7.99757 11.9961C7.99755 14.2046 9.78781 15.9949 11.9962 15.9949C14.2047 15.9949 15.995 14.2046 15.995 11.9962C15.995 9.78775 14.2047 7.99747 11.9963 7.99746C9.78788 7.99745 7.99759 9.78772 7.99757 11.9961Z" fill="white"/>
<circle cx="18.3999" cy="5.59284" r="1.43952" fill="white"/>
</svg>
