<svg width="24" height="24" viewBox="0 0 24 24" fill="none" xmlns="http://www.w3.org/2000/svg">
<path fill-rule="evenodd" clip-rule="evenodd" d="M17.9771 14.7383C18.0526 14.8617 18.0526 15.456 17.808 16.1531C17.5589 16.848 16.3771 17.4811 15.8034 17.5657C14.8617 17.7051 14.1211 17.6366 12.2354 16.8229C9.25257 15.5314 7.30743 12.5303 7.15657 12.3337C7.01257 12.1349 5.94514 10.72 5.94514 9.25714C5.94514 7.79429 6.71086 7.07657 6.98514 6.77714C7.25943 6.48229 7.57943 6.40686 7.77829 6.40686C7.97714 6.40686 8.17371 6.40686 8.34514 6.41829C8.528 6.42971 8.77486 6.34971 9.01486 6.928C9.26171 7.52229 9.856 8.98514 9.93143 9.13371C10.0069 9.28457 10.0549 9.456 9.95886 9.65486C9.38971 10.7886 8.78171 10.752 9.08343 11.2777C10.2354 13.2549 11.3829 13.9406 13.1291 14.8137C13.424 14.9623 13.6023 14.9349 13.7714 14.7383C13.9497 14.5349 14.5166 13.8697 14.7154 13.5703C14.9143 13.2709 15.1109 13.3189 15.3851 13.4194C15.6571 13.5154 17.12 14.2354 17.4149 14.384C17.7097 14.5303 17.9086 14.6034 17.9771 14.7383ZM21.9909 11.8994C21.9954 9.25714 20.8503 6.77714 18.9851 4.90743C17.12 3.03771 14.64 2.00914 12 2.00914C6.54629 2.00914 2.112 6.44571 2.112 11.8926C2.112 13.7623 2.62857 15.5794 3.62057 17.1543L3.856 17.5291L2.86171 21.1771L6.59886 20.1966L6.96 20.4114C8.47543 21.3097 10.2149 21.7874 11.9954 21.7874C17.4423 21.7874 21.9909 17.3531 21.9909 11.8994ZM24 11.8994C24 18.4549 18.5463 23.792 11.9954 23.792H11.9886C9.99543 23.792 8.03886 23.2937 6.30629 22.3451L0 24L1.68686 17.84C0.646857 16.0343 0.102857 13.9886 0.102857 11.8926C0.102857 5.33714 5.43771 0 11.9954 0C15.1703 0 18.16 1.23886 20.4046 3.488C22.6491 5.73714 24 8.72229 24 11.8994Z" fill="white"/>
</svg>
