<svg width="24" height="18" viewBox="0 0 24 18" fill="none" xmlns="http://www.w3.org/2000/svg">
<path fill-rule="evenodd" clip-rule="evenodd" d="M20.9907 0.332427C22.2475 0.472896 23.2915 1.41456 23.5853 2.69093C24.0001 4.49379 24 6.46044 24 8.31843V8.36422C24 10.2354 23.9985 12.2193 23.5801 14.037C23.2863 15.3134 22.242 16.255 20.986 16.3955C18.0103 16.728 14.9985 16.7297 11.9991 16.728C9.00022 16.7297 5.98767 16.728 3.0118 16.3955C1.755 16.2548 0.711515 15.3131 0.418188 14.037C0 12.2196 0 10.2357 0 8.36422C0 6.49278 0.0047071 4.50861 0.422895 2.69093C0.716717 1.41456 1.75996 0.472896 3.01601 0.332427C5.99213 0.000204697 9.00492 -0.0015295 12.0038 0.000204694C15.0023 -0.0015295 18.0146 0.000204697 20.9907 0.332427ZM8.90285 4.15236V12.0893C9.97489 11.5334 11.043 10.9796 12.1106 10.4261C13.5826 9.66289 15.0537 8.90019 16.5328 8.13308C13.9731 6.79775 11.4464 5.47951 8.90285 4.15236Z" fill="white"/>
</svg>
